<svg xmlns="http://www.w3.org/2000/svg" viewBox="0 0 64 64" role="img" aria-labelledby="title desc">
  <title id="title">Video Detailed Summary app icon</title>
  <desc id="desc">A video play symbol with paired summary panels for comparative evaluation.</desc>
  <rect x="4" y="4" width="56" height="56" rx="14" fill="#2d5be3"/>
  <path d="M4 42h56v4c0 7.7-6.3 14-14 14H18C10.3 60 4 53.7 4 46v-4z" fill="#1f44b5" opacity=".55"/>

  <rect x="13" y="13" width="38" height="25" rx="5" fill="#ffffff"/>
  <rect x="17" y="17" width="30" height="17" rx="3" fill="#eef1fd"/>
  <path d="M28 21.5v8.9c0 1 1.1 1.6 1.9 1.1l7-4.4c.8-.5.8-1.7 0-2.2l-7-4.4c-.8-.5-1.9.1-1.9 1z" fill="#2d5be3"/>

  <rect x="12" y="42" width="18" height="11" rx="3" fill="#ffffff"/>
  <rect x="16" y="46" width="10" height="2" rx="1" fill="#2d5be3"/>
  <rect x="16" y="49.5" width="7" height="1.8" rx=".9" fill="#6b6b6b" opacity=".7"/>

  <rect x="34" y="42" width="18" height="11" rx="3" fill="#ffffff"/>
  <rect x="38" y="46" width="10" height="2" rx="1" fill="#2d5be3"/>
  <rect x="38" y="49.5" width="7" height="1.8" rx=".9" fill="#6b6b6b" opacity=".7"/>
</svg>
